<svg width="22" height="22" viewBox="0 0 22 22" fill="none" xmlns="http://www.w3.org/2000/svg">
<path d="M19.4119 4.15801L15.4833 0.229407C15.3355 0.0833747 15.1364 0.00105887 14.9286 0H3.14291C2.70895 0 2.35718 0.351776 2.35718 0.785729V21.2143C2.35718 21.6482 2.70895 22 3.14291 22H18.8572C19.2911 22 19.6429 21.6482 19.6429 21.2143V4.71428C19.6418 4.50573 19.5588 4.30597 19.4119 4.15801ZM15.7143 2.68245L16.9605 3.9286H15.7143V2.68245ZM18.0714 20.4285H3.92859V1.57141H14.1429V4.71428C14.1429 5.14824 14.4947 5.50001 14.9286 5.50001H18.0715V20.4285H18.0714Z" fill="#1E5DC5"/>
<path d="M15.7142 7.07141H6.28567C5.85171 7.07141 5.49994 7.42319 5.49994 7.85714C5.49994 8.29109 5.85171 8.64287 6.28567 8.64287H15.7142C16.1482 8.64287 16.5 8.29109 16.5 7.85714C16.5 7.42319 16.1482 7.07141 15.7142 7.07141Z" fill="#1E5DC5"/>
<path d="M15.7142 10.2142H6.28567C5.85171 10.2142 5.49994 10.566 5.49994 11C5.49994 11.4339 5.85176 11.7856 6.28567 11.7856H15.7142C16.1482 11.7856 16.5 11.4339 16.5 10.9999C16.5 10.566 16.1482 10.2142 15.7142 10.2142Z" fill="#1E5DC5"/>
<path d="M15.7142 13.3573H6.28567C5.85171 13.3573 5.49994 13.7091 5.49994 14.143C5.49994 14.577 5.85171 14.9288 6.28567 14.9288H15.7142C16.1482 14.9288 16.5 14.577 16.5 14.143C16.5 13.7091 16.1482 13.3573 15.7142 13.3573Z" fill="#1E5DC5"/>
<path d="M15.7142 16.5001H6.28567C5.85171 16.5001 5.49994 16.8519 5.49994 17.2859C5.49994 17.7198 5.85171 18.0716 6.28567 18.0716H15.7142C16.1482 18.0716 16.5 17.7198 16.5 17.2859C16.5 16.8519 16.1482 16.5001 15.7142 16.5001Z" fill="#1E5DC5"/>
</svg>
