<svg width="20" height="20" viewBox="0 0 20 20" fill="none" xmlns="http://www.w3.org/2000/svg">
<g clip-path="url(#clip0)">
<path d="M18.5713 12.8572C18.1768 12.8572 17.857 13.177 17.857 13.5715V17.8572C17.857 18.2517 17.5373 18.5715 17.1427 18.5715H2.8571C2.4626 18.5715 2.1428 18.2517 2.1428 17.8572V13.5715C2.1428 13.177 1.82301 12.8572 1.4285 12.8572C1.034 12.8572 0.714203 13.177 0.714203 13.5715V17.8572C0.714203 19.0407 1.67359 20 2.85706 20H17.1428C18.3263 20 19.2856 19.0407 19.2856 17.8572V13.5715C19.2856 13.177 18.9659 12.8572 18.5713 12.8572Z" fill="#1E5DC5"/>
<path d="M14.0604 12.3521C13.7835 12.0848 13.3447 12.0848 13.0679 12.3521L10.7144 14.7043V0.714299C10.7144 0.319796 10.3946 0 10.0001 0C9.60555 0 9.28575 0.319796 9.28575 0.714299V14.7043L6.93359 12.3521C6.64983 12.0781 6.19765 12.086 5.9236 12.3697C5.65624 12.6465 5.65624 13.0853 5.9236 13.3621L9.49502 16.9335C9.77363 17.2128 10.2259 17.2134 10.5052 16.9348C10.5056 16.9344 10.506 16.934 10.5065 16.9335L14.0779 13.3621C14.352 13.0784 14.3441 12.6262 14.0604 12.3521Z" fill="#1E5DC5"/>
</g>
<defs>
<clipPath id="clip0">
<rect width="20" height="20" fill="white"/>
</clipPath>
</defs>
</svg>
