<svg width="36" height="36" viewBox="0 0 36 36" fill="none" xmlns="http://www.w3.org/2000/svg">
<path d="M28 30.5C27.173 30.5 26.5 29.827 26.5 29C26.5 28.173 27.173 27.5 28 27.5C28.827 27.5 29.5 28.173 29.5 29C29.5 29.827 28.827 30.5 28 30.5ZM28 28.5C27.724 28.5 27.5 28.724 27.5 29C27.5 29.276 27.724 29.5 28 29.5C28.276 29.5 28.5 29.276 28.5 29C28.5 28.724 28.276 28.5 28 28.5Z" fill="white"/>
<path d="M8.9707 5.32086L10.3849 3.90665L11.092 4.61376L9.67781 6.02797L8.9707 5.32086Z" fill="white"/>
<path d="M4.9043 9.38617L6.31851 7.97195L7.02562 8.67906L5.6114 10.0933L4.9043 9.38617Z" fill="white"/>
<path d="M5.08203 4.61334L5.78914 3.90624L7.20335 5.32045L6.49624 6.02756L5.08203 4.61334Z" fill="white"/>
<path d="M17.8782 25.151C17.6862 25.151 17.4942 25.077 17.3482 24.931L15.9702 23.553L17.0312 22.492L17.9082 23.369L22.6512 19.135C26.0502 16.231 28.3292 11.648 28.4912 7.50897C24.3522 7.67197 19.7702 9.94997 16.8762 13.337L12.6312 18.092L15.7592 21.22L14.6982 22.281L11.0692 18.652C10.7882 18.371 10.7752 17.919 11.0402 17.622L15.7462 12.351C19.0792 8.44997 24.4892 5.89697 29.2652 6.00397C29.6652 6.01297 29.9882 6.33597 29.9972 6.73597C30.1072 11.484 27.5522 16.921 23.6382 20.265L18.3792 24.96C18.2352 25.088 18.0572 25.151 17.8782 25.151V25.151Z" fill="white"/>
<path d="M19.7489 28.727C19.6739 28.727 19.5989 28.716 19.5279 28.692C19.2579 28.602 19.0459 28.385 19.0059 28.104L18.3359 23.427L19.8199 23.214L20.2579 26.272C21.7119 24.349 22.4869 22.043 22.4869 19.618H23.987C23.987 22.972 22.6819 26.124 20.3129 28.493C20.1649 28.64 19.9559 28.727 19.7489 28.727Z" fill="white"/>
<path d="M12.5735 17.665L7.89649 16.995C7.61449 16.955 7.37949 16.758 7.29049 16.487C7.20149 16.216 7.27349 15.919 7.47649 15.718C9.87649 13.318 13.0285 12.013 16.3825 12.013V13.513C13.9455 13.513 11.6305 14.295 9.72249 15.741L12.7865 16.18L12.5735 17.665Z" fill="white"/>
<path d="M23.1333 15.366C22.4923 15.366 21.8523 15.122 21.3653 14.635C20.3913 13.66 20.3913 12.074 21.3653 11.099C22.3403 10.124 23.9263 10.124 24.9013 11.099C25.8753 12.074 25.8753 13.66 24.9013 14.635C24.4133 15.123 23.7733 15.366 23.1333 15.366ZM23.1333 11.868C22.8773 11.868 22.6203 11.965 22.4253 12.16C22.0353 12.55 22.0353 13.184 22.4253 13.575C22.8143 13.965 23.4503 13.965 23.8393 13.575C24.2293 13.185 24.2293 12.551 23.8393 12.161C23.6453 11.965 23.3893 11.868 23.1333 11.868V11.868Z" fill="white"/>
<path d="M6.7505 30C6.5545 30 6.3625 29.923 6.2205 29.78C6.0255 29.585 5.9535 29.299 6.0325 29.034C6.2835 28.193 7.5925 23.945 8.6145 22.924C9.8075 21.732 11.8855 21.733 13.0765 22.924C13.6725 23.521 14.0005 24.313 14.0005 25.156C14.0005 25.999 13.6725 26.791 13.0765 27.387C12.0555 28.408 7.8065 29.717 6.9665 29.969C6.8955 29.99 6.8225 30 6.7505 30ZM10.8455 23.501C10.4215 23.501 9.99749 23.662 9.67449 23.985C9.23849 24.421 8.4875 26.349 7.9035 28.097C9.6515 27.513 11.5795 26.762 12.0155 26.326C12.6615 25.68 12.6615 24.63 12.0155 23.985C11.6925 23.662 11.2695 23.501 10.8455 23.501V23.501Z" fill="white"/>
</svg>
