<?xml version="1.0" encoding="utf-8"?>
<!-- Generator: Adobe Illustrator 22.1.0, SVG Export Plug-In . SVG Version: 6.00 Build 0)  -->
<svg version="1.1" id="Layer_1" xmlns="http://www.w3.org/2000/svg" xmlns:xlink="http://www.w3.org/1999/xlink" x="0px" y="0px"
	 viewBox="0 0 36 36" style="enable-background:new 0 0 36 36;" xml:space="preserve">
<style type="text/css">
	.st0{fill:#FFFFFF;}
</style>
<path id="XMLID_6_" class="st0" d="M32.5,12c-0.8,0-1.5-0.7-1.5-1.5S31.7,9,32.5,9S34,9.7,34,10.5S33.3,12,32.5,12z M32.5,10
	c-0.3,0-0.5,0.2-0.5,0.5s0.2,0.5,0.5,0.5s0.5-0.2,0.5-0.5S32.8,10,32.5,10z"/>
<path id="XMLID_5_" class="st0" d="M27,15.2h-1.5V8.7c0-0.7-0.6-1.2-1.2-1.2H11.8c-0.7,0-1.2,0.6-1.2,1.2v4.5H9V8.7
	C9,7.2,10.2,6,11.8,6h12.5C25.8,6,27,7.2,27,8.7V15.2z"/>
<path id="XMLID_2_" class="st0" d="M27.2,30H8.8C7.2,30,6,28.8,6,27.2V15.7C6,14.2,7.2,13,8.8,13h4.8c0.5,0,0.9,0.2,1.2,0.5l1.4,1.4
	c0,0,0.1,0.1,0.2,0.1h10.8c1.5,0,2.8,1.2,2.8,2.7v9.5C30,28.8,28.8,30,27.2,30z M8.8,14.5c-0.7,0-1.2,0.6-1.2,1.2v11.5
	c0,0.7,0.6,1.2,1.2,1.2h18.5c0.7,0,1.2-0.6,1.2-1.2v-9.5c0-0.7-0.6-1.2-1.2-1.2H16.4c-0.5,0-0.9-0.2-1.2-0.5l-1.4-1.4
	c0,0-0.1-0.1-0.2-0.1H8.8z"/>
<path id="XMLID_1_" class="st0" d="M2,28.5h32V30H2V28.5z"/>
</svg>
