<svg width="116" height="116" viewBox="0 0 116 116" fill="none" xmlns="http://www.w3.org/2000/svg">
<path d="M89.0073 102.573C66.7192 102.573 51.4137 114.118 40.674 114.118C29.9343 114.118 7.37878 107.944 7.37878 58.5381C7.37878 9.13176 37.7224 1.87854 49.5351 1.87854C104.851 1.87854 128.48 102.573 89.0073 102.573Z" fill="#F0F4FA"/>
<path d="M89.0138 10.4722H92.236V16.9167H89.0138V10.4722Z" fill="#1E5DC5"/>
<path d="M96.2638 20.1389H102.708V23.3611H96.2638V20.1389Z" fill="#1E5DC5"/>
<path d="M28.1944 94.25C24.65 94.25 21.75 91.35 21.75 87.8055V37.8611C21.75 34.3166 24.65 31.4166 28.1944 31.4166H68.4722C72.0166 31.4166 74.9166 34.3166 74.9166 37.8611V87.8055C74.9166 91.3661 72.0328 94.25 68.4722 94.25H28.1944Z" fill="white"/>
<path d="M62.0277 28.1944V34.6389C62.0277 36.4176 60.5841 37.8611 58.8055 37.8611H37.861C36.0824 37.8611 34.6388 36.4176 34.6388 34.6389V28.1944H41.8888C41.8888 24.65 44.7888 21.75 48.3332 21.75C51.8777 21.75 54.7777 24.65 54.7777 28.1944H62.0277Z" fill="#DEEFFF"/>
<path d="M31.4165 47.5278H42.6943V58.8056H31.4165V47.5278Z" fill="#DEEFFF"/>
<path d="M31.4165 73.3055H42.6943V84.5833H31.4165V73.3055Z" fill="#DEEFFF"/>
<path d="M75.7225 94.25C85.9551 94.25 94.2503 85.9548 94.2503 75.7222C94.2503 65.4896 85.9551 57.1945 75.7225 57.1945C65.4899 57.1945 57.1947 65.4896 57.1947 75.7222C57.1947 85.9548 65.4899 94.25 75.7225 94.25Z" fill="#DEEFFF"/>
<path d="M51.9582 22.8778C50.9239 22.1689 49.6769 21.75 48.3332 21.75C44.7888 21.75 41.8888 24.65 41.8888 28.1944H49.1388C49.1388 25.9937 50.2601 24.041 51.9582 22.8778Z" fill="#D9E7FF"/>
<path d="M41.8888 34.6389V28.1945H34.6388V34.6389C34.6388 36.4176 36.0823 37.8611 37.861 37.8611H45.111C43.3323 37.8611 41.8888 36.4176 41.8888 34.6389Z" fill="#D9E7FF"/>
<path d="M31.4165 47.5278H38.6665V58.8056H31.4165V47.5278Z" fill="#D9E7FF"/>
<path d="M31.4165 73.3055H38.6665V84.5833H31.4165V73.3055Z" fill="#D9E7FF"/>
<path d="M64.4442 75.7222C64.4442 66.7322 70.85 59.2406 79.347 57.5553C78.1741 57.3233 76.9626 57.1945 75.722 57.1945C65.4882 57.1945 57.1942 65.4885 57.1942 75.7222C57.1942 85.956 65.4882 94.25 75.722 94.25C76.9626 94.25 78.1741 94.1244 79.347 93.8891C70.85 92.2039 64.4442 84.7122 64.4442 75.7222Z" fill="#D9E7FF"/>
<path d="M29 87.8055V37.8611C29 34.3166 31.9 31.4166 35.4445 31.4166H28.1944C24.65 31.4166 21.75 34.3166 21.75 37.8611V87.8055C21.75 91.35 24.65 94.25 28.1944 94.25H35.4445C31.9 94.25 29 91.35 29 87.8055Z" fill="#D9E7FF"/>
<path d="M42.6944 61.2222H31.4167C30.0827 61.2222 29 60.1395 29 58.8055V47.5278C29 46.1938 30.0827 45.1111 31.4167 45.1111H42.6944C44.0284 45.1111 45.1111 46.1938 45.1111 47.5278V58.8055C45.1111 60.1395 44.0284 61.2222 42.6944 61.2222ZM33.8333 56.3889H40.2778V49.9444H33.8333V56.3889Z" fill="#1E5DC5"/>
<path d="M42.6944 87H31.4167C30.0827 87 29 85.9174 29 84.5834V73.3056C29 71.9716 30.0827 70.8889 31.4167 70.8889H42.6944C44.0284 70.8889 45.1111 71.9716 45.1111 73.3056V84.5834C45.1111 85.9174 44.0284 87 42.6944 87ZM33.8333 82.1667H40.2778V75.7222H33.8333V82.1667Z" fill="#1E5DC5"/>
<path d="M50.75 46.7222H68.4722V51.5555H50.75V46.7222Z" fill="#1E5DC5"/>
<path d="M75.7221 96.6667C64.1737 96.6667 54.7777 87.2707 54.7777 75.7223C54.7777 64.1738 64.1737 54.7778 75.7221 54.7778C87.2706 54.7778 96.6666 64.1738 96.6666 75.7223C96.6666 87.2707 87.2706 96.6667 75.7221 96.6667ZM75.7221 59.6112C66.8385 59.6112 59.611 66.8386 59.611 75.7223C59.611 84.6059 66.8385 91.8334 75.7221 91.8334C84.6058 91.8334 91.8333 84.6059 91.8333 75.7223C91.8333 66.8386 84.6058 59.6112 75.7221 59.6112Z" fill="#1E5DC5"/>
<path d="M72.4998 84.5834C71.8618 84.5834 71.2431 84.3288 70.792 83.8745L64.3475 77.43L67.7663 74.0113L72.387 78.6287L81.9634 67.686L85.6013 70.8664L74.3235 83.7553C73.8821 84.2579 73.2538 84.5576 72.5868 84.5801C72.5545 84.5834 72.5255 84.5834 72.4998 84.5834Z" fill="#1E5DC5"/>
<path d="M77.3337 47.56H72.5003V37.8611C72.5003 35.641 70.6927 33.8333 68.4726 33.8333H62.4148V29H68.4726C73.3607 29 77.3337 32.9762 77.3337 37.8611V47.56Z" fill="#1E5DC5"/>
<path d="M54.4879 96.6667H28.1946C23.3065 96.6667 19.3335 92.6937 19.3335 87.8056V37.8611C19.3335 32.973 23.3065 29 28.1946 29H34.2524V33.8333H28.1946C25.9745 33.8333 24.1668 35.641 24.1668 37.8611V87.8056C24.1668 90.0257 25.9745 91.8333 28.1946 91.8333H54.4879V96.6667Z" fill="#1E5DC5"/>
<path d="M58.8056 40.2778H37.8612C34.7517 40.2778 32.2223 37.7483 32.2223 34.6389V28.1944C32.2223 26.8604 33.305 25.7778 34.639 25.7778H39.8074C40.8643 22.0625 44.2863 19.3333 48.3334 19.3333C52.3805 19.3333 55.8025 22.0625 56.8594 25.7778H62.0278C63.3618 25.7778 64.4445 26.8604 64.4445 28.1944V34.6389C64.4445 37.7483 61.9151 40.2778 58.8056 40.2778ZM37.0556 30.6111V34.6389C37.0556 35.0835 37.4165 35.4444 37.8612 35.4444H58.8056C59.2503 35.4444 59.6112 35.0835 59.6112 34.6389V30.6111H54.7778C53.4438 30.6111 52.3612 29.5284 52.3612 28.1944C52.3612 25.9743 50.5535 24.1666 48.3334 24.1666C46.1133 24.1666 44.3056 25.9743 44.3056 28.1944C44.3056 29.5284 43.223 30.6111 41.889 30.6111H37.0556Z" fill="#1E5DC5"/>
</svg>
