<?xml version="1.0" encoding="utf-8"?>
<!-- Generator: Adobe Illustrator 22.1.0, SVG Export Plug-In . SVG Version: 6.00 Build 0)  -->
<svg version="1.1" id="Layer_1" xmlns="http://www.w3.org/2000/svg" xmlns:xlink="http://www.w3.org/1999/xlink" x="0px" y="0px"
	 viewBox="0 0 36 36" style="enable-background:new 0 0 36 36;" xml:space="preserve">
<style type="text/css">
	.st0{fill:#FFFFFF;}
</style>
<path id="XMLID_18_" class="st0" d="M27.6,3.2h1v2h-1V3.2z"/>
<path id="XMLID_17_" class="st0" d="M29.9,6.2h2v1h-2V6.2z"/>
<path id="XMLID_14_" class="st0" d="M13.2,19H9.8C9.3,19,9,18.7,9,18.2v-3.5C9,14.3,9.3,14,9.8,14h3.5c0.4,0,0.8,0.3,0.8,0.8v3.5
	C14,18.7,13.7,19,13.2,19z M10.5,17.5h2v-2h-2V17.5z"/>
<path id="XMLID_11_" class="st0" d="M13.2,27H9.8C9.3,27,9,26.7,9,26.2v-3.5C9,22.3,9.3,22,9.8,22h3.5c0.4,0,0.8,0.3,0.8,0.8v3.5
	C14,26.7,13.7,27,13.2,27z M10.5,25.5h2v-2h-2V25.5z"/>
<path id="XMLID_10_" class="st0" d="M15.8,14.5h5.5V16h-5.5V14.5z"/>
<path id="XMLID_7_" class="st0" d="M23.5,30c-3.6,0-6.5-2.9-6.5-6.5s2.9-6.5,6.5-6.5s6.5,2.9,6.5,6.5S27.1,30,23.5,30z M23.5,18.5
	c-2.8,0-5,2.2-5,5s2.2,5,5,5s5-2.2,5-5S26.3,18.5,23.5,18.5z"/>
<path id="XMLID_6_" class="st0" d="M22.5,26.2c-0.2,0-0.4-0.1-0.5-0.2l-2-2L21,23l1.4,1.4l3-3.4l1.1,1l-3.5,4
	C22.9,26.1,22.7,26.2,22.5,26.2C22.5,26.2,22.5,26.2,22.5,26.2z"/>
<path id="XMLID_5_" class="st0" d="M24,14.8h-1.5v-3c0-0.7-0.6-1.2-1.2-1.2h-1.9V9h1.9c1.5,0,2.8,1.2,2.8,2.8V14.8z"/>
<path id="XMLID_4_" class="st0" d="M16.9,30H8.8C7.2,30,6,28.8,6,27.2V11.7C6,10.2,7.2,9,8.8,9h1.9v1.5H8.8c-0.7,0-1.2,0.6-1.2,1.2
	v15.5c0,0.7,0.6,1.2,1.2,1.2h8.2V30z"/>
<path id="XMLID_1_" class="st0" d="M18.2,12.5h-6.5c-1,0-1.8-0.8-1.8-1.8v-2C10,8.3,10.3,8,10.8,8h1.6c0.3-1.2,1.4-2,2.6-2
	s2.3,0.8,2.6,2h1.6C19.7,8,20,8.3,20,8.7v2C20,11.7,19.2,12.5,18.2,12.5z M11.5,9.5v1.2c0,0.1,0.1,0.2,0.2,0.2h6.5
	c0.1,0,0.2-0.1,0.2-0.2V9.5H17c-0.4,0-0.8-0.3-0.8-0.8c0-0.7-0.6-1.2-1.2-1.2s-1.2,0.6-1.2,1.2c0,0.4-0.3,0.8-0.8,0.8H11.5z"/>
</svg>
