<svg width="116" height="116" viewBox="0 0 116 116" fill="none" xmlns="http://www.w3.org/2000/svg">
<path d="M13.4273 89.0075C13.4273 66.7193 1.88208 51.4138 1.88208 40.6741C1.88208 29.9345 8.05586 7.37891 57.4622 7.37891C106.869 7.37891 114.119 37.7226 114.119 49.5352C114.122 104.851 13.4273 128.48 13.4273 89.0075Z" fill="#F0F4FA"/>
<path d="M96.2638 6.44446H99.486V12.8889H96.2638V6.44446Z" fill="#1E5DC5"/>
<path d="M103.514 16.1111H109.958V19.3333H103.514V16.1111Z" fill="#1E5DC5"/>
<path d="M87.8056 94.2501H28.1944C24.6339 94.2501 21.75 91.3662 21.75 87.8056V47.5278H94.25V87.8056C94.25 91.3662 91.3661 94.2501 87.8056 94.2501Z" fill="white"/>
<path d="M94.25 47.5278H21.75V34.6389C21.75 31.0783 24.6339 28.1945 28.1944 28.1945H87.8056C91.3661 28.1945 94.25 31.0783 94.25 34.6389V47.5278Z" fill="#DEEFFF"/>
<path d="M49.1387 81.3611H34.6387C32.8601 81.3611 31.4165 79.9175 31.4165 78.1389V63.6389C31.4165 61.8602 32.8601 60.4166 34.6387 60.4166H49.1387C50.9174 60.4166 52.3609 61.8602 52.3609 63.6389V78.1389C52.3609 79.9175 50.9174 81.3611 49.1387 81.3611Z" fill="#DEEFFF"/>
<path d="M35.4445 28.1945H28.1944C24.6339 28.1945 21.75 31.0783 21.75 34.6389V47.5278H29V34.6389C29 31.0783 31.8839 28.1945 35.4445 28.1945Z" fill="#D9E7FF"/>
<path d="M38.6665 78.1389V63.6389C38.6665 61.8602 40.11 60.4166 41.8887 60.4166H34.6387C32.8601 60.4166 31.4165 61.8602 31.4165 63.6389V78.1389C31.4165 79.9175 32.8601 81.3611 34.6387 81.3611H41.8887C40.11 81.3611 38.6665 79.9175 38.6665 78.1389Z" fill="#D9E7FF"/>
<path d="M29 87.8056V47.5278H21.75V87.8056C21.75 91.3662 24.6339 94.2501 28.1944 94.2501H35.4445C31.8839 94.2501 29 91.3662 29 87.8056Z" fill="#D9E7FF"/>
<path d="M49.1389 83.7778H34.6389C31.5294 83.7778 29 81.2483 29 78.1389V63.6389C29 60.5294 31.5294 58 34.6389 58H49.1389C52.2483 58 54.7778 60.5294 54.7778 63.6389V78.1389C54.7778 81.2483 52.2483 83.7778 49.1389 83.7778ZM34.6389 62.8333C34.1942 62.8333 33.8333 63.1942 33.8333 63.6389V78.1389C33.8333 78.5836 34.1942 78.9445 34.6389 78.9445H49.1389C49.5836 78.9445 49.9445 78.5836 49.9445 78.1389V63.6389C49.9445 63.1942 49.5836 62.8333 49.1389 62.8333H34.6389Z" fill="#1E5DC5"/>
<path d="M73.3057 80.5555C72.6162 80.5555 71.9588 80.2623 71.498 79.7435L65.0536 72.4935L68.6657 69.2842L73.18 74.3624L82.6727 62.1566L86.4878 65.1243L75.21 79.6243C74.7686 80.1914 74.0984 80.533 73.383 80.5555C73.3605 80.5555 73.3315 80.5555 73.3057 80.5555Z" fill="#1E5DC5"/>
<path d="M87.8057 96.6667H28.1946C23.3065 96.6667 19.3335 92.6937 19.3335 87.8056V34.6389C19.3335 29.7508 23.3065 25.7778 28.1946 25.7778H87.8057C92.6938 25.7778 96.6668 29.7508 96.6668 34.6389V87.8056C96.6668 92.6937 92.6938 96.6667 87.8057 96.6667ZM28.1946 30.6111C25.9745 30.6111 24.1668 32.4188 24.1668 34.6389V87.8056C24.1668 90.0257 25.9745 91.8333 28.1946 91.8333H87.8057C90.0258 91.8333 91.8335 90.0257 91.8335 87.8056V34.6389C91.8335 32.4188 90.0258 30.6111 87.8057 30.6111H28.1946Z" fill="#1E5DC5"/>
<path d="M21.75 45.1111H94.25V49.9444H21.75V45.1111Z" fill="#1E5DC5"/>
<path d="M35.4447 19.3333H40.278V38.6667H35.4447V19.3333Z" fill="#1E5DC5"/>
<path d="M75.7224 19.3333H80.5557V38.6667H75.7224V19.3333Z" fill="#1E5DC5"/>
</svg>
