<?xml version="1.0" encoding="utf-8"?>
<!-- Generator: Adobe Illustrator 22.1.0, SVG Export Plug-In . SVG Version: 6.00 Build 0)  -->
<svg version="1.1" id="Layer_1" xmlns="http://www.w3.org/2000/svg" xmlns:xlink="http://www.w3.org/1999/xlink" x="0px" y="0px"
	 viewBox="0 0 36 36" style="enable-background:new 0 0 36 36;" xml:space="preserve">
<style type="text/css">
	.st0{fill:#FFFFFF;}
</style>
<path id="XMLID_12_" class="st0" d="M32.5,24c-0.8,0-1.5-0.7-1.5-1.5s0.7-1.5,1.5-1.5s1.5,0.7,1.5,1.5S33.3,24,32.5,24z M32.5,22
	c-0.3,0-0.5,0.2-0.5,0.5s0.2,0.5,0.5,0.5s0.5-0.2,0.5-0.5S32.8,22,32.5,22z"/>
<path id="XMLID_11_" class="st0" d="M2.8,28.5h30.5V30H2.8V28.5z"/>
<path id="XMLID_8_" class="st0" d="M19.1,26.3c-0.4,0-0.9-0.2-1.2-0.5c0,0,0,0,0,0l-5.4-5.4c-0.1-0.1-0.2-0.3-0.2-0.5l0-4.9
	c0-0.4,0.3-0.7,0.7-0.7l4.9,0c0.2,0,0.4,0.1,0.5,0.2l5.4,5.4c0.7,0.7,0.7,1.8,0,2.5l-3.5,3.5C20,26.2,19.5,26.3,19.1,26.3z
	 M18.9,24.8c0.1,0.1,0.3,0.1,0.4,0l3.5-3.5c0.1-0.1,0.1-0.3,0-0.4l-5.1-5.1l-3.9,0l0,3.9L18.9,24.8z"/>
<path id="XMLID_5_" class="st0" d="M16,19.7c-1,0-1.8-0.8-1.8-1.8s0.8-1.8,1.8-1.8s1.8,0.8,1.8,1.8S17,19.7,16,19.7z M16,17.7
	c-0.1,0-0.2,0.1-0.2,0.2c0,0.3,0.5,0.3,0.5,0C16.2,17.9,16.1,17.7,16,17.7z"/>
<path id="XMLID_2_" class="st0" d="M27.2,29H8.8C7.2,29,6,27.8,6,26.2V9.7C6,8.2,7.2,7,8.8,7h18.5C28.8,7,30,8.2,30,9.7v16.5
	C30,27.8,28.8,29,27.2,29z M8.8,8.5c-0.7,0-1.2,0.6-1.2,1.2v16.5c0,0.7,0.6,1.2,1.2,1.2h18.5c0.7,0,1.2-0.6,1.2-1.2V9.7
	c0-0.7-0.6-1.2-1.2-1.2H8.8z"/>
<path id="XMLID_1_" class="st0" d="M6.8,10.5h22.5V12H6.8V10.5z"/>
</svg>
